<svg id="svg" version="1.1" xmlns="http://www.w3.org/2000/svg" xmlns:xlink="http://www.w3.org/1999/xlink" width="400" height="400" viewBox="0, 0, 400,400"><g id="svgg"><path id="path0" d="M191.800 96.795 C 154.997 100.730,119.318 129.986,107.157 166.200 C 101.756 182.286,99.605 203.818,101.984 218.000 C 103.102 224.662,104.468 230.445,105.624 233.400 C 105.796 233.840,106.390 235.550,106.944 237.200 C 112.096 252.542,122.591 268.172,135.418 279.602 C 139.788 283.497,140.608 284.152,146.000 288.063 C 163.152 300.502,183.816 306.947,206.600 306.962 C 220.255 306.971,224.354 306.412,235.928 302.966 C 254.180 297.531,274.824 284.629,281.634 274.400 C 282.586 272.970,284.544 270.630,285.985 269.200 C 287.426 267.770,289.774 265.160,291.203 263.400 C 292.631 261.640,293.892 260.110,294.004 260.000 C 294.239 259.769,296.429 256.508,296.954 255.608 C 297.655 254.404,295.754 256.633,294.914 258.000 C 294.440 258.770,293.726 259.763,293.327 260.208 C 292.927 260.652,291.582 262.182,290.338 263.608 C 284.550 270.240,284.065 270.607,282.864 269.249 C 280.545 266.624,270.281 267.290,234.330 272.396 C 212.051 275.560,196.287 273.882,190.361 267.714 C 177.957 254.805,180.820 235.833,202.438 187.704 C 202.857 186.772,203.200 185.933,203.200 185.840 C 203.200 185.747,203.846 184.260,204.635 182.536 C 206.997 177.376,212.000 165.698,212.000 165.345 C 212.000 165.241,212.339 164.401,212.752 163.478 C 213.166 162.555,214.357 159.550,215.398 156.800 C 232.505 111.627,225.265 93.217,191.800 96.795 M287.467 171.464 C 287.284 171.649,273.330 171.890,256.458 172.000 L 225.782 172.200 223.180 173.481 C 220.941 174.584,219.013 176.212,215.743 179.761 C 213.551 182.140,208.109 197.200,209.442 197.200 C 209.723 197.200,210.064 197.020,210.200 196.800 C 210.467 196.368,228.728 196.231,230.287 196.649 C 231.485 196.970,231.738 198.007,231.071 199.858 C 230.765 200.706,230.286 202.120,230.007 203.000 C 228.805 206.787,224.026 218.716,219.511 229.200 C 216.009 237.330,215.861 237.623,215.527 237.106 C 215.264 236.698,215.136 236.699,214.872 237.108 C 214.433 237.786,194.627 237.886,193.818 237.215 C 192.861 236.421,189.928 242.119,188.193 248.145 C 186.502 254.016,188.437 259.369,193.078 261.654 L 195.000 262.600 229.900 262.711 C 257.997 262.800,264.800 262.722,264.798 262.311 C 264.796 261.637,262.036 255.594,258.446 248.400 L 255.551 242.600 236.311 242.715 C 225.116 242.782,216.918 242.678,216.706 242.466 C 216.072 241.832,216.884 239.406,222.289 225.800 C 223.513 222.720,224.938 219.250,225.457 218.088 C 225.976 216.927,226.400 215.890,226.400 215.785 C 226.400 215.604,230.041 206.702,230.811 205.000 C 231.010 204.560,231.627 202.869,232.182 201.242 C 233.429 197.588,234.699 195.383,236.677 193.438 C 239.714 190.452,238.374 190.622,260.667 190.400 C 271.704 190.290,280.809 190.110,280.901 190.000 C 281.163 189.685,284.198 182.269,286.206 177.037 C 287.865 172.718,288.349 170.574,287.467 171.464 M298.082 253.227 C 297.584 254.092,297.316 254.796,297.488 254.790 C 297.818 254.780,299.321 251.988,299.111 251.777 C 299.043 251.709,298.580 252.362,298.082 253.227 " stroke="none" fill="#0d83df" fill-rule="evenodd"></path><path id="path1" d="M0.000 200.000 L 0.000 400.000 200.000 400.000 L 400.000 400.000 400.000 200.000 L 400.000 0.000 200.000 0.000 L 0.000 0.000 0.000 200.000 M209.000 96.310 C 226.046 100.957,229.438 116.379,219.928 146.000 C 218.174 151.464,218.277 151.164,216.980 154.600 C 216.482 155.920,215.607 158.260,215.036 159.800 C 214.465 161.340,213.826 162.960,213.617 163.400 C 213.408 163.840,211.589 168.160,209.576 173.000 C 207.563 177.840,205.777 181.980,205.607 182.200 C 205.437 182.420,205.161 183.050,204.994 183.600 C 204.827 184.150,204.251 185.590,203.715 186.800 C 203.179 188.010,202.503 189.540,202.214 190.200 C 201.925 190.860,201.241 192.390,200.695 193.600 C 200.148 194.810,199.596 196.070,199.468 196.400 C 199.340 196.730,198.529 198.710,197.666 200.800 C 196.153 204.466,195.884 206.030,197.026 204.524 C 197.328 204.126,197.580 203.455,197.587 203.033 C 197.594 202.612,197.702 202.368,197.826 202.492 C 198.476 203.142,197.471 205.516,196.315 206.064 C 195.159 206.611,195.132 206.675,195.792 207.335 C 196.227 207.769,196.416 208.405,196.296 209.029 C 196.112 209.992,196.133 210.003,196.875 209.332 C 197.491 208.774,197.793 208.728,198.387 209.099 C 198.975 209.467,199.175 209.442,199.352 208.981 C 199.520 208.542,199.236 208.400,198.187 208.400 C 196.652 208.400,196.358 207.617,197.385 206.261 C 197.927 205.546,197.961 205.548,198.443 206.320 C 199.058 207.305,200.800 206.725,200.800 205.536 C 200.800 204.560,200.091 204.588,199.928 205.570 C 199.802 206.329,199.785 206.329,198.843 205.560 C 198.317 205.131,198.012 204.655,198.165 204.502 C 198.318 204.348,198.604 204.483,198.800 204.800 C 198.996 205.117,199.294 205.239,199.463 205.070 C 199.632 204.902,199.552 204.414,199.285 203.987 C 199.018 203.560,198.811 202.893,198.825 202.505 C 198.845 201.958,198.932 202.002,199.212 202.700 C 199.604 203.674,200.609 203.908,200.935 203.100 C 201.046 202.825,201.151 203.166,201.168 203.857 C 201.207 205.381,202.235 205.959,202.632 204.680 C 202.920 203.750,203.233 203.025,206.162 196.515 C 207.173 194.269,208.000 192.316,208.000 192.175 C 208.000 191.910,210.330 186.898,212.532 182.426 C 214.955 177.505,220.668 172.534,225.400 171.228 C 227.532 170.640,288.739 170.420,288.937 171.000 C 289.284 172.014,282.060 190.215,281.041 190.894 C 280.798 191.056,272.085 191.191,261.677 191.194 C 240.284 191.201,240.072 191.224,237.388 193.833 C 235.907 195.272,233.207 199.961,233.198 201.110 C 233.196 201.270,232.934 201.900,232.615 202.511 C 232.123 203.455,232.113 204.028,232.549 206.311 L 233.063 209.000 233.232 206.699 C 233.356 205.005,233.265 204.399,232.886 204.399 C 232.489 204.400,232.473 204.210,232.818 203.566 C 233.428 202.426,233.699 202.840,233.671 204.869 C 233.658 205.807,233.798 206.761,233.981 206.988 C 234.164 207.214,234.402 207.760,234.511 208.200 C 234.689 208.925,234.712 208.915,234.754 208.100 C 234.779 207.605,235.057 207.200,235.371 207.200 C 235.686 207.200,236.189 206.954,236.490 206.653 C 237.565 205.578,238.835 205.447,239.080 206.386 L 239.305 207.243 239.764 206.322 L 240.224 205.400 274.972 205.298 L 309.720 205.196 309.477 199.898 C 309.100 191.678,307.397 183.181,304.686 176.000 C 302.428 170.016,299.697 164.121,297.859 161.262 C 297.245 160.306,296.825 159.442,296.926 159.340 C 297.129 159.138,299.462 162.016,300.379 163.600 C 302.339 166.985,304.451 171.114,305.046 172.727 C 305.427 173.757,305.868 174.780,306.027 175.000 C 310.652 181.392,313.820 210.351,311.201 222.277 C 310.968 223.335,310.501 225.460,310.163 227.000 C 306.692 242.780,298.621 257.565,286.944 269.530 C 284.919 271.605,282.591 274.277,281.771 275.467 C 279.380 278.940,274.449 283.361,266.578 289.093 C 266.346 289.262,265.806 289.614,265.378 289.876 C 264.950 290.137,263.146 291.257,261.369 292.365 C 259.592 293.472,255.812 295.529,252.969 296.936 C 248.576 299.110,246.258 300.104,240.200 302.411 C 236.948 303.649,229.334 305.618,223.400 306.755 C 215.880 308.196,196.980 308.207,189.970 306.775 C 183.021 305.355,181.595 305.043,179.600 304.509 C 120.417 288.662,86.551 227.261,104.750 168.800 C 116.663 130.533,152.273 100.320,191.200 95.451 C 194.776 95.004,206.238 95.557,209.000 96.310 M239.912 204.335 C 239.997 204.591,239.702 204.800,239.257 204.800 C 238.430 204.800,237.849 204.284,238.238 203.895 C 238.597 203.536,239.746 203.838,239.912 204.335 M231.206 207.063 C 230.894 207.688,230.574 208.335,230.495 208.500 C 230.417 208.665,230.548 208.800,230.786 208.800 C 231.259 208.800,232.103 206.909,231.901 206.302 C 231.832 206.095,231.519 206.437,231.206 207.063 M237.200 206.800 C 237.200 207.020,237.470 207.200,237.800 207.200 C 238.130 207.200,238.400 207.020,238.400 206.800 C 238.400 206.580,238.130 206.400,237.800 206.400 C 237.470 206.400,237.200 206.580,237.200 206.800 " stroke="none" fill="#f3f3f3" fill-rule="evenodd"></path><path id="path2" d="M198.707 95.890 C 199.426 95.979,200.506 95.977,201.107 95.886 C 201.708 95.795,201.120 95.722,199.800 95.724 C 198.480 95.726,197.988 95.801,198.707 95.890 M221.634 105.800 C 221.634 106.020,221.978 106.830,222.400 107.600 C 222.822 108.370,223.166 108.820,223.166 108.600 C 223.166 108.380,222.822 107.570,222.400 106.800 C 221.978 106.030,221.634 105.580,221.634 105.800 M223.680 111.000 C 223.680 111.440,223.824 112.250,224.000 112.800 C 224.254 113.592,224.320 113.633,224.320 113.000 C 224.320 112.560,224.176 111.750,224.000 111.200 C 223.746 110.408,223.680 110.367,223.680 111.000 M224.482 119.400 C 224.382 124.894,223.422 131.016,221.588 137.853 C 220.158 143.181,219.703 145.516,220.624 142.800 C 223.278 134.969,224.935 125.244,224.713 118.800 L 224.569 114.600 224.482 119.400 M218.991 146.874 C 218.029 149.835,213.668 161.446,212.755 163.478 C 212.340 164.401,212.000 165.241,212.000 165.345 C 212.000 165.698,206.997 177.376,204.635 182.536 C 203.846 184.260,203.200 185.747,203.200 185.840 C 203.200 185.933,202.857 186.772,202.438 187.704 C 181.622 234.048,178.067 254.736,189.022 265.770 C 191.317 268.082,196.915 271.200,198.770 271.200 C 199.138 271.200,199.611 271.355,199.820 271.544 C 201.111 272.710,214.354 273.523,220.600 272.818 C 222.800 272.570,226.490 272.213,228.800 272.024 C 234.396 271.567,239.692 270.785,240.263 270.331 C 240.518 270.129,241.418 269.979,242.263 269.997 C 243.108 270.016,244.970 269.852,246.400 269.632 C 269.419 266.099,280.068 265.864,282.568 268.835 C 284.106 270.663,284.290 270.539,290.338 263.608 C 291.582 262.182,292.927 260.652,293.327 260.208 C 293.726 259.763,294.440 258.770,294.914 258.000 C 295.387 257.230,296.120 256.240,296.541 255.800 C 297.410 254.894,297.119 255.454,295.441 257.916 C 294.804 258.851,294.399 259.733,294.541 259.875 C 294.857 260.190,294.668 260.421,297.072 256.800 C 311.191 235.535,315.494 210.423,309.240 185.800 C 308.538 183.039,306.360 177.018,305.912 176.600 C 305.610 176.319,305.573 176.438,305.787 177.000 C 305.954 177.440,306.181 178.160,306.291 178.600 C 306.401 179.040,306.902 180.840,307.404 182.600 C 307.906 184.360,308.530 186.970,308.790 188.400 C 309.051 189.830,309.451 191.900,309.678 193.000 C 310.347 196.228,310.573 211.805,310.016 216.281 C 308.569 227.912,304.247 241.263,299.837 247.718 C 299.267 248.553,298.800 249.380,298.800 249.556 C 298.800 249.944,297.455 251.200,297.040 251.200 C 296.877 251.200,297.026 250.917,297.371 250.571 C 297.717 250.226,297.986 249.731,297.968 249.471 C 297.946 249.140,297.877 249.148,297.735 249.500 C 297.624 249.775,297.344 250.000,297.114 250.000 C 296.883 250.000,296.357 250.389,295.944 250.864 C 295.532 251.339,295.085 251.618,294.950 251.483 C 294.815 251.348,294.996 250.947,295.352 250.590 C 296.229 249.714,296.181 248.913,295.300 249.704 C 294.687 250.254,292.722 250.324,279.500 250.266 C 265.941 250.207,263.258 250.325,264.900 250.912 C 265.175 251.010,265.250 251.250,265.066 251.445 C 264.876 251.646,264.415 251.410,264.001 250.900 C 263.099 249.786,262.664 249.742,262.999 250.797 C 263.194 251.410,263.107 251.539,262.626 251.355 C 262.282 251.223,262.000 250.864,262.000 250.557 C 262.000 250.251,261.820 250.000,261.600 250.000 C 261.380 250.000,261.200 250.306,261.200 250.680 C 261.200 251.806,260.585 250.867,258.179 246.069 C 255.748 241.223,255.433 240.903,253.713 241.531 L 252.600 241.937 253.600 241.975 C 254.150 241.995,254.813 242.148,255.074 242.314 C 255.944 242.867,264.800 261.156,264.800 262.399 C 264.800 262.693,254.215 262.788,229.900 262.711 L 195.000 262.600 193.078 261.654 C 191.807 261.028,190.587 259.954,189.478 258.484 L 187.800 256.260 187.800 251.630 C 187.800 247.155,188.563 243.150,189.688 241.719 C 189.896 241.455,189.990 240.915,189.896 240.519 C 189.754 239.918,189.657 239.965,189.306 240.813 C 189.075 241.370,188.532 242.630,188.100 243.613 C 186.561 247.109,186.400 247.658,186.400 249.395 C 186.400 250.362,186.220 251.264,186.000 251.400 C 185.762 251.547,185.600 251.065,185.600 250.206 C 185.600 248.754,184.738 248.353,183.867 249.400 C 182.841 250.635,184.322 238.387,185.874 232.800 C 186.908 229.083,188.861 222.644,189.211 221.800 C 189.393 221.360,189.930 219.830,190.402 218.400 C 192.186 213.003,199.580 195.066,204.996 183.000 C 211.047 169.516,220.420 145.487,219.850 144.917 C 219.757 144.824,219.371 145.705,218.991 146.874 M256.600 171.192 L 225.800 171.400 223.818 172.314 C 219.445 174.330,214.793 178.974,212.939 183.174 C 211.711 185.957,212.438 185.738,213.846 182.900 C 215.765 179.035,219.404 175.370,223.191 173.488 L 225.782 172.200 256.391 172.000 C 273.226 171.890,287.225 171.654,287.500 171.476 C 288.368 170.915,288.074 172.172,286.189 177.082 C 284.196 182.275,281.162 189.686,280.901 190.000 C 280.809 190.110,271.704 190.290,260.667 190.400 C 238.374 190.622,239.714 190.452,236.677 193.438 C 234.699 195.383,233.429 197.588,232.182 201.242 C 231.627 202.869,231.010 204.560,230.811 205.000 C 230.041 206.702,226.400 215.604,226.400 215.785 C 226.400 215.890,225.976 216.927,225.457 218.088 C 224.938 219.250,223.513 222.720,222.289 225.800 C 216.776 239.679,216.376 240.891,217.160 241.375 C 217.431 241.543,217.600 241.296,217.600 240.732 C 217.600 239.788,218.393 237.516,221.484 229.600 C 223.360 224.795,224.173 222.776,228.088 213.200 C 229.392 210.010,231.172 205.420,232.044 203.000 C 236.469 190.719,236.272 190.800,261.641 190.800 L 280.782 190.800 281.371 189.900 C 281.903 189.087,283.992 184.024,287.561 174.903 C 288.804 171.723,288.885 170.698,287.876 170.892 C 287.614 170.942,273.540 171.077,256.600 171.192 M210.744 187.858 C 209.413 190.809,208.990 192.177,209.505 191.858 C 209.721 191.725,210.006 191.071,210.139 190.405 C 210.272 189.738,210.763 188.676,211.230 188.046 C 211.696 187.415,212.015 186.587,211.939 186.207 C 211.854 185.782,211.393 186.418,210.744 187.858 M226.527 241.900 C 231.327 241.964,239.067 241.963,243.727 241.899 C 248.387 241.836,244.460 241.783,235.000 241.783 C 225.540 241.783,221.727 241.836,226.527 241.900 M298.517 253.341 C 298.123 254.132,297.660 254.785,297.488 254.790 C 297.316 254.796,297.584 254.092,298.082 253.227 C 299.195 251.292,299.498 251.371,298.517 253.341 M291.800 262.662 C 290.700 264.101,288.327 266.783,286.527 268.622 C 284.726 270.460,282.500 273.098,281.578 274.483 C 273.748 286.248,249.328 300.289,228.600 304.943 C 214.150 308.188,195.752 307.891,181.321 304.180 C 168.873 300.978,155.215 294.746,146.000 288.063 C 140.608 284.152,139.788 283.497,135.418 279.602 C 130.889 275.566,122.561 266.446,121.225 264.059 C 121.024 263.700,120.770 263.497,120.659 263.608 C 120.236 264.031,126.378 271.230,131.573 276.401 C 141.833 286.613,153.815 294.637,166.200 299.590 C 167.960 300.293,169.760 301.033,170.200 301.233 C 184.717 307.826,210.576 309.526,229.578 305.137 C 249.901 300.442,274.234 286.396,281.787 275.000 C 282.370 274.120,284.594 271.600,286.728 269.400 C 290.249 265.770,294.400 260.809,294.400 260.230 C 294.400 259.561,293.597 260.312,291.800 262.662 " stroke="none" fill="#99afbe" fill-rule="evenodd"></path><path id="path3" d="M195.400 95.905 C 189.872 96.195,178.357 98.355,176.400 99.470 L 175.400 100.040 176.400 99.863 C 176.950 99.766,178.840 99.317,180.600 98.866 C 193.967 95.436,207.521 95.837,215.300 99.891 C 215.465 99.977,215.600 99.937,215.600 99.801 C 215.600 99.593,213.726 98.690,210.200 97.198 C 208.544 96.497,199.378 95.696,195.400 95.905 M169.530 101.586 C 163.506 103.937,155.706 107.861,149.400 111.712 C 145.517 114.083,135.151 122.429,131.400 126.202 C 128.304 129.317,120.000 139.204,120.000 139.775 C 120.000 139.895,119.370 140.819,118.599 141.829 C 116.749 144.252,113.588 149.646,111.198 154.459 C 110.503 155.857,109.775 157.305,109.578 157.678 C 106.699 163.139,102.185 178.731,101.206 186.600 C 100.987 188.360,100.630 190.970,100.412 192.400 C 98.533 204.742,102.137 228.188,107.926 241.289 C 108.342 242.230,108.803 243.341,108.950 243.757 C 109.098 244.174,109.309 244.424,109.419 244.314 C 109.530 244.204,109.241 243.233,108.778 242.157 C 108.314 241.080,107.486 238.850,106.936 237.200 C 106.386 235.550,105.796 233.840,105.624 233.400 C 104.468 230.445,103.102 224.662,101.984 218.000 C 100.673 210.186,101.128 191.690,102.860 182.400 C 109.906 144.592,137.662 112.432,173.100 101.012 C 174.255 100.640,175.200 100.260,175.200 100.168 C 175.200 99.684,172.981 100.239,169.530 101.586 M218.488 102.213 C 219.086 102.843,219.647 103.277,219.735 103.179 C 219.823 103.080,219.333 102.565,218.647 102.034 L 217.400 101.069 218.488 102.213 M212.006 186.100 C 212.011 186.828,212.086 186.885,212.400 186.400 C 212.901 185.624,212.901 185.200,212.400 185.200 C 212.180 185.200,212.003 185.605,212.006 186.100 M211.093 188.224 C 210.704 188.743,210.278 189.712,210.145 190.375 C 210.012 191.039,209.655 191.788,209.352 192.040 C 209.048 192.292,208.800 192.666,208.800 192.871 C 208.800 193.076,208.461 193.999,208.047 194.922 C 207.633 195.845,206.169 199.570,204.793 203.200 C 203.418 206.830,201.850 210.880,201.309 212.200 C 200.769 213.520,200.232 215.050,200.115 215.600 C 199.999 216.150,199.370 217.770,198.717 219.200 C 198.064 220.630,197.119 222.700,196.617 223.800 C 193.922 229.708,190.274 238.779,190.102 240.000 C 189.994 240.770,189.774 241.580,189.614 241.800 C 189.137 242.454,188.096 246.066,187.827 248.000 C 187.630 249.421,187.820 249.084,188.732 246.400 C 190.773 240.390,192.936 236.483,193.818 237.215 C 194.627 237.886,214.433 237.786,214.872 237.108 C 215.136 236.699,215.264 236.698,215.527 237.106 C 215.861 237.623,216.009 237.330,219.511 229.200 C 224.026 218.716,228.805 206.787,230.007 203.000 C 230.286 202.120,230.765 200.706,231.071 199.858 C 231.738 198.007,231.485 196.970,230.287 196.649 C 228.728 196.231,210.467 196.368,210.200 196.800 C 208.605 199.380,209.239 194.542,211.140 189.624 C 212.099 187.142,212.091 186.890,211.093 188.224 M216.465 241.842 C 216.619 242.642,252.879 243.275,254.400 242.504 C 254.730 242.337,246.630 242.110,236.400 242.000 C 226.170 241.890,217.467 241.639,217.059 241.442 C 216.458 241.150,216.346 241.225,216.465 241.842 M112.815 251.400 C 112.817 251.620,113.186 252.250,113.636 252.800 C 114.179 253.464,114.315 253.531,114.040 253.000 C 113.366 251.695,112.812 250.972,112.815 251.400 M188.337 265.478 C 188.814 266.375,189.537 266.996,189.799 266.734 C 189.879 266.654,189.478 266.141,188.908 265.594 C 187.950 264.677,187.906 264.668,188.337 265.478 M266.000 267.079 C 264.775 267.211,256.803 268.310,236.200 271.188 C 219.719 273.490,202.163 273.662,199.820 271.544 C 199.611 271.355,199.133 271.200,198.757 271.200 C 197.833 271.200,192.972 268.993,191.710 268.000 C 190.159 266.781,189.703 267.046,191.008 268.409 C 196.210 273.838,213.181 275.400,234.330 272.396 C 264.295 268.140,271.865 267.358,276.928 267.992 C 280.968 268.499,282.280 268.513,281.780 268.043 C 280.697 267.025,271.641 266.471,266.000 267.079 " stroke="none" fill="#53cdf9" fill-rule="evenodd"></path><path id="path4" d="M191.200 95.451 C 144.160 101.334,103.064 144.527,100.200 191.096 C 100.059 193.390,100.253 192.582,100.945 188.000 C 105.127 160.314,117.046 138.401,137.600 120.611 C 165.397 96.551,207.809 87.881,220.394 103.687 C 221.277 104.797,222.000 105.484,222.000 105.215 C 222.000 103.097,214.136 97.710,209.000 96.310 C 206.238 95.557,194.776 95.004,191.200 95.451 M224.705 118.200 C 224.791 121.500,224.924 124.380,224.999 124.600 C 225.281 125.419,225.142 115.339,224.851 113.800 C 224.681 112.904,224.617 114.840,224.705 118.200 M222.229 137.029 C 222.081 137.615,222.038 138.172,222.132 138.266 C 222.227 138.360,222.424 137.958,222.571 137.371 C 222.719 136.785,222.762 136.228,222.668 136.134 C 222.573 136.040,222.376 136.442,222.229 137.029 M216.844 154.044 C 216.598 154.751,216.466 155.400,216.552 155.485 C 216.638 155.571,216.909 155.062,217.156 154.356 C 217.402 153.649,217.534 153.000,217.448 152.915 C 217.362 152.829,217.091 153.338,216.844 154.044 M296.817 159.308 C 296.807 159.477,297.290 160.377,297.888 161.308 C 299.696 164.120,302.441 170.050,304.686 176.000 C 307.397 183.181,309.100 191.678,309.477 199.898 L 309.720 205.196 274.972 205.298 L 240.224 205.400 239.764 206.322 L 239.305 207.243 239.080 206.386 C 238.835 205.447,237.565 205.578,236.490 206.653 C 236.189 206.954,235.686 207.200,235.371 207.200 C 235.057 207.200,234.779 207.605,234.754 208.100 C 234.712 208.915,234.689 208.925,234.511 208.200 C 234.402 207.760,234.139 207.185,233.926 206.921 C 233.712 206.658,233.571 206.028,233.613 205.521 C 233.810 203.119,233.629 202.530,232.959 203.400 C 232.621 203.840,232.198 204.162,232.020 204.116 C 231.533 203.990,229.797 208.850,229.918 210.000 C 229.988 210.668,229.909 210.829,229.678 210.485 C 229.202 209.773,226.397 216.851,226.667 218.081 C 226.807 218.714,226.754 218.839,226.499 218.481 C 226.120 217.949,225.496 219.333,221.485 229.600 C 218.411 237.468,217.600 239.786,217.600 240.708 L 217.600 241.600 234.900 241.663 C 244.415 241.698,252.560 241.674,253.000 241.610 C 255.747 241.211,255.638 241.117,258.192 246.081 C 260.742 251.040,261.200 251.737,261.200 250.667 C 261.200 250.300,261.380 250.000,261.600 250.000 C 261.820 250.000,262.000 250.251,262.000 250.557 C 262.000 250.864,262.282 251.223,262.626 251.355 C 263.107 251.539,263.194 251.410,262.999 250.797 C 262.664 249.742,263.099 249.786,264.001 250.900 C 264.415 251.410,264.876 251.646,265.066 251.445 C 265.250 251.250,265.175 251.010,264.900 250.912 C 263.258 250.325,265.941 250.207,279.500 250.266 C 292.722 250.324,294.687 250.254,295.300 249.704 C 296.181 248.913,296.229 249.714,295.352 250.590 C 294.996 250.947,294.815 251.348,294.950 251.483 C 295.085 251.618,295.532 251.339,295.944 250.864 C 296.357 250.389,296.883 250.000,297.114 250.000 C 297.344 250.000,297.624 249.775,297.735 249.500 C 297.877 249.148,297.946 249.140,297.968 249.471 C 297.986 249.731,297.717 250.226,297.371 250.571 C 297.026 250.917,296.908 251.200,297.109 251.200 C 297.509 251.200,298.800 249.891,298.800 249.486 C 298.800 249.348,299.267 248.553,299.837 247.718 C 304.247 241.263,308.569 227.912,310.016 216.281 C 310.573 211.805,310.347 196.228,309.678 193.000 C 309.451 191.900,309.051 189.830,308.790 188.400 C 308.530 186.970,307.906 184.360,307.404 182.600 C 306.902 180.840,306.401 179.040,306.291 178.600 C 306.181 178.160,305.950 177.455,305.777 177.034 C 305.574 176.537,305.610 176.359,305.881 176.526 C 306.110 176.668,306.976 178.903,307.806 181.492 C 309.609 187.121,310.103 188.366,309.753 186.400 C 309.511 185.041,307.347 178.227,306.387 175.800 C 305.946 174.686,305.886 174.657,305.550 175.400 C 305.254 176.053,305.226 176.001,305.397 175.117 C 305.648 173.822,304.893 171.832,302.490 167.457 C 301.507 165.665,300.458 163.740,300.160 163.177 C 299.517 161.963,296.841 158.866,296.817 159.308 M213.667 162.380 C 213.433 163.051,213.327 163.600,213.431 163.600 C 213.701 163.600,214.456 161.522,214.257 161.324 C 214.167 161.233,213.901 161.708,213.667 162.380 M210.065 171.017 C 209.395 172.488,209.523 172.802,210.247 171.465 C 210.586 170.840,210.788 170.254,210.696 170.163 C 210.605 170.071,210.321 170.456,210.065 171.017 M255.363 170.800 L 225.326 171.000 222.260 172.556 C 218.472 174.479,214.414 178.595,212.532 182.422 C 210.302 186.958,208.000 191.912,208.000 192.175 C 208.000 192.316,207.173 194.269,206.162 196.515 C 203.233 203.025,202.920 203.750,202.632 204.680 C 202.235 205.959,201.207 205.381,201.168 203.857 C 201.151 203.166,201.046 202.825,200.935 203.100 C 200.609 203.908,199.604 203.674,199.212 202.700 C 198.932 202.002,198.845 201.958,198.825 202.505 C 198.811 202.893,199.018 203.560,199.285 203.987 C 199.552 204.414,199.632 204.902,199.463 205.070 C 199.294 205.239,198.996 205.117,198.800 204.800 C 198.604 204.483,198.318 204.348,198.165 204.502 C 198.012 204.655,198.317 205.131,198.843 205.560 C 199.785 206.329,199.802 206.329,199.928 205.570 C 200.091 204.588,200.800 204.560,200.800 205.536 C 200.800 206.725,199.058 207.305,198.443 206.320 C 197.961 205.548,197.927 205.546,197.385 206.261 C 196.358 207.617,196.652 208.400,198.187 208.400 C 199.236 208.400,199.520 208.542,199.352 208.981 C 199.175 209.442,198.975 209.467,198.387 209.099 C 197.793 208.728,197.491 208.774,196.875 209.332 C 196.133 210.003,196.112 209.992,196.296 209.029 C 196.416 208.405,196.227 207.769,195.792 207.335 C 195.132 206.675,195.159 206.611,196.315 206.064 C 197.471 205.516,198.476 203.142,197.826 202.492 C 197.702 202.368,197.594 202.612,197.587 203.033 C 197.573 203.915,196.635 205.302,196.288 204.955 C 196.160 204.827,196.152 204.469,196.270 204.161 C 196.389 203.852,196.402 203.600,196.300 203.600 C 195.992 203.600,191.898 213.876,190.402 218.400 C 189.930 219.830,189.393 221.360,189.211 221.800 C 188.861 222.644,186.908 229.083,185.874 232.800 C 184.322 238.387,182.841 250.635,183.867 249.400 C 184.738 248.353,185.600 248.754,185.600 250.206 C 185.600 251.065,185.762 251.547,186.000 251.400 C 186.220 251.264,186.400 250.362,186.400 249.395 C 186.400 248.429,186.605 247.134,186.856 246.519 C 187.785 244.241,188.360 242.927,189.745 239.910 C 190.525 238.210,192.186 234.340,193.435 231.310 C 195.631 225.983,197.010 222.842,199.035 218.560 C 199.566 217.438,200.000 216.214,200.000 215.840 C 200.000 215.466,200.249 214.674,200.553 214.080 C 200.857 213.486,202.317 209.760,203.798 205.800 C 207.979 194.621,209.946 189.575,210.973 187.400 C 211.492 186.300,212.484 184.195,213.177 182.722 C 214.928 179.002,219.258 174.613,222.991 172.774 L 225.782 171.400 256.991 171.200 C 274.982 171.085,288.416 171.151,288.709 171.357 C 289.076 171.613,289.150 171.535,288.975 171.079 C 288.799 170.622,288.268 170.467,287.066 170.523 C 286.150 170.565,271.883 170.690,255.363 170.800 M287.115 175.810 C 286.992 176.245,286.769 176.960,286.620 177.400 C 286.471 177.840,286.642 177.694,287.000 177.076 C 287.358 176.458,287.581 175.742,287.495 175.486 C 287.410 175.230,287.239 175.376,287.115 175.810 M207.200 177.684 C 207.200 177.803,206.752 178.913,206.205 180.150 C 205.658 181.388,205.300 182.400,205.410 182.400 C 205.731 182.400,207.631 177.898,207.405 177.672 C 207.292 177.559,207.200 177.564,207.200 177.684 M204.379 184.255 C 204.158 184.836,204.052 185.385,204.143 185.476 C 204.233 185.567,204.499 185.092,204.733 184.420 C 205.253 182.928,204.939 182.782,204.379 184.255 M202.450 188.650 C 202.186 189.229,202.062 189.795,202.174 189.907 C 202.286 190.019,202.568 189.611,202.800 189.000 C 203.349 187.557,203.073 187.282,202.450 188.650 M310.087 189.000 C 310.091 189.440,310.232 190.340,310.400 191.000 C 310.674 192.078,310.706 192.098,310.713 191.200 C 310.717 190.650,310.576 189.750,310.400 189.200 C 310.149 188.416,310.081 188.373,310.087 189.000 M281.281 190.018 C 280.808 190.776,280.194 190.801,261.497 190.828 C 250.883 190.844,241.891 190.979,241.513 191.128 C 240.740 191.434,279.323 191.313,280.656 191.005 C 281.127 190.896,281.626 190.510,281.765 190.146 C 282.134 189.186,281.849 189.110,281.281 190.018 M201.265 191.417 C 200.595 192.888,200.723 193.202,201.447 191.865 C 201.786 191.240,201.988 190.654,201.896 190.563 C 201.805 190.471,201.521 190.856,201.265 191.417 M311.056 194.200 C 311.545 198.772,311.971 200.815,311.744 197.503 C 311.628 195.799,311.377 193.909,311.187 193.303 C 310.935 192.498,310.899 192.740,311.056 194.200 M236.744 193.900 C 235.593 195.289,235.106 196.000,235.304 196.000 C 235.414 196.000,235.986 195.370,236.573 194.600 C 237.663 193.171,237.795 192.632,236.744 193.900 M234.233 197.537 C 233.702 198.563,232.001 202.821,232.000 203.124 C 231.999 203.663,232.766 202.589,232.974 201.760 C 233.189 200.905,234.386 198.043,235.090 196.700 C 235.176 196.535,235.151 196.400,235.034 196.400 C 234.917 196.400,234.556 196.912,234.233 197.537 M196.865 201.817 C 196.195 203.288,196.323 203.602,197.047 202.265 C 197.386 201.640,197.588 201.054,197.496 200.963 C 197.405 200.871,197.121 201.256,196.865 201.817 M238.238 203.895 C 237.849 204.284,238.430 204.800,239.257 204.800 C 239.702 204.800,239.997 204.591,239.912 204.335 C 239.746 203.838,238.597 203.536,238.238 203.895 M233.231 206.699 C 233.087 208.653,233.019 208.819,232.778 207.800 C 232.310 205.821,232.361 204.400,232.900 204.399 C 233.262 204.399,233.353 205.035,233.231 206.699 M312.137 207.800 C 312.139 209.560,312.209 210.230,312.293 209.289 C 312.378 208.349,312.377 206.909,312.291 206.089 C 312.205 205.270,312.136 206.040,312.137 207.800 M231.623 207.739 C 231.401 208.323,231.025 208.800,230.786 208.800 C 230.548 208.800,230.417 208.665,230.495 208.500 C 231.743 205.873,232.536 205.338,231.623 207.739 M238.400 206.800 C 238.400 207.020,238.130 207.200,237.800 207.200 C 237.470 207.200,237.200 207.020,237.200 206.800 C 237.200 206.580,237.470 206.400,237.800 206.400 C 238.130 206.400,238.400 206.580,238.400 206.800 M100.075 210.200 C 100.062 211.080,100.286 213.150,100.575 214.800 C 101.254 218.686,101.283 216.861,100.616 212.200 C 100.310 210.065,100.090 209.251,100.075 210.200 M311.701 216.600 C 311.705 217.480,311.787 217.793,311.883 217.295 C 311.979 216.798,311.975 216.078,311.875 215.695 C 311.775 215.313,311.696 215.720,311.701 216.600 M101.278 219.000 C 101.277 220.241,102.287 224.666,102.328 223.600 C 102.340 223.270,102.109 221.830,101.815 220.400 C 101.520 218.970,101.278 218.340,101.278 219.000 M311.293 220.000 C 311.293 220.770,311.375 221.085,311.476 220.700 C 311.576 220.315,311.576 219.685,311.476 219.300 C 311.375 218.915,311.293 219.230,311.293 220.000 M310.250 225.250 C 310.109 225.953,310.069 226.602,310.159 226.692 C 310.250 226.783,310.448 226.291,310.600 225.600 C 310.752 224.909,310.793 224.259,310.691 224.158 C 310.589 224.056,310.391 224.547,310.250 225.250 M102.448 225.200 C 102.428 225.530,102.667 226.610,102.979 227.600 C 103.291 228.590,103.545 229.040,103.543 228.600 C 103.538 227.606,102.497 224.374,102.448 225.200 M103.632 229.870 C 103.589 230.502,107.197 240.907,107.612 241.350 C 107.793 241.543,107.071 239.164,106.008 236.064 C 103.694 229.315,103.673 229.258,103.632 229.870 M108.811 244.107 C 108.782 244.937,115.302 257.051,116.289 258.000 C 117.034 258.717,116.869 258.369,115.244 255.800 C 114.688 254.920,113.015 251.860,111.527 249.000 C 110.039 246.140,108.817 243.938,108.811 244.107 M303.665 245.017 C 302.995 246.488,303.123 246.802,303.847 245.465 C 304.186 244.840,304.388 244.254,304.296 244.163 C 304.205 244.071,303.921 244.456,303.665 245.017 M301.600 249.200 C 301.151 250.080,300.874 250.800,300.984 250.800 C 301.094 250.800,301.551 250.080,302.000 249.200 C 302.449 248.320,302.726 247.600,302.616 247.600 C 302.506 247.600,302.049 248.320,301.600 249.200 M296.985 256.900 C 296.368 257.835,296.120 258.389,296.432 258.131 C 297.033 257.634,298.564 255.200,298.276 255.200 C 298.183 255.200,297.602 255.965,296.985 256.900 M117.395 259.800 C 118.481 261.557,121.194 265.200,121.417 265.200 C 121.623 265.200,117.732 259.665,117.059 259.000 C 116.836 258.780,116.987 259.140,117.395 259.800 M290.575 265.300 L 289.400 266.600 290.700 265.425 C 291.415 264.779,292.000 264.194,292.000 264.125 C 292.000 263.816,291.670 264.088,290.575 265.300 M122.336 266.660 C 122.810 267.352,124.027 268.792,125.041 269.860 C 126.833 271.745,126.825 271.727,124.768 269.200 C 122.167 266.004,121.193 264.987,122.336 266.660 M258.500 267.876 C 258.885 267.976,259.515 267.976,259.900 267.876 C 260.285 267.775,259.970 267.693,259.200 267.693 C 258.430 267.693,258.115 267.775,258.500 267.876 M286.778 269.500 L 285.400 271.000 286.900 269.622 C 288.296 268.338,288.584 268.000,288.278 268.000 C 288.212 268.000,287.537 268.675,286.778 269.500 M250.100 269.076 C 250.485 269.176,251.115 269.176,251.500 269.076 C 251.885 268.975,251.570 268.893,250.800 268.893 C 250.030 268.893,249.715 268.975,250.100 269.076 M241.105 270.283 C 241.602 270.379,242.322 270.375,242.705 270.275 C 243.087 270.175,242.680 270.096,241.800 270.101 C 240.920 270.105,240.607 270.187,241.105 270.283 M130.400 275.800 C 132.481 277.890,134.267 279.600,134.369 279.600 C 134.712 279.600,127.403 272.107,127.008 272.053 C 126.792 272.024,128.319 273.710,130.400 275.800 M225.905 272.283 C 226.402 272.379,227.122 272.375,227.505 272.275 C 227.887 272.175,227.480 272.096,226.600 272.101 C 225.720 272.105,225.407 272.187,225.905 272.283 M277.988 279.500 L 275.400 282.200 278.100 279.612 C 279.585 278.188,280.800 276.973,280.800 276.912 C 280.800 276.617,280.393 276.992,277.988 279.500 M136.600 281.600 C 137.459 282.480,138.252 283.200,138.362 283.200 C 138.472 283.200,137.859 282.480,137.000 281.600 C 136.141 280.720,135.348 280.000,135.238 280.000 C 135.128 280.000,135.741 280.720,136.600 281.600 M272.000 284.834 L 270.200 286.465 272.100 284.984 C 273.766 283.686,274.259 283.197,273.900 283.201 C 273.845 283.202,272.990 283.936,272.000 284.834 M141.600 285.597 C 143.207 287.045,145.200 288.534,145.200 288.286 C 145.200 288.194,144.075 287.267,142.700 286.227 C 141.325 285.186,140.830 284.903,141.600 285.597 M257.900 294.027 C 257.075 294.463,256.400 294.908,256.400 295.018 C 256.400 295.127,257.120 294.849,258.000 294.400 C 258.880 293.951,259.600 293.497,259.600 293.392 C 259.600 293.130,259.597 293.131,257.900 294.027 M180.600 304.800 C 181.040 304.989,181.670 305.144,182.000 305.144 C 182.378 305.144,182.304 305.017,181.800 304.800 C 181.360 304.611,180.730 304.456,180.400 304.456 C 180.022 304.456,180.096 304.583,180.600 304.800 M227.600 305.600 C 226.796 305.857,226.757 305.923,227.400 305.932 C 227.840 305.938,228.560 305.789,229.000 305.600 C 230.019 305.162,228.968 305.162,227.600 305.600 M190.400 306.780 C 191.399 307.120,193.882 307.332,193.567 307.051 C 193.475 306.969,192.500 306.799,191.400 306.672 C 190.051 306.516,189.726 306.551,190.400 306.780 M203.718 307.898 C 205.433 307.973,208.133 307.972,209.718 307.897 C 211.303 307.821,209.900 307.759,206.600 307.760 C 203.300 307.761,202.003 307.822,203.718 307.898 " stroke="none" fill="#c1d1da" fill-rule="evenodd"></path></g></svg>